<?xml version="1.0" encoding="UTF-8" standalone="no"?>
<!-- Created with Inkscape (http://www.inkscape.org/) -->

<svg
   width="512"
   height="512"
   viewBox="0 0 512 512"
   version="1.1"
   id="svg1"
   xml:space="preserve"
   inkscape:version="1.4.4 (dcaf3e7, 2026-05-05)"
   sodipodi:docname="transparent logo with white border.svg"
   xmlns:inkscape="http://www.inkscape.org/namespaces/inkscape"
   xmlns:sodipodi="http://sodipodi.sourceforge.net/DTD/sodipodi-0.dtd"
   xmlns="http://www.w3.org/2000/svg"
   xmlns:svg="http://www.w3.org/2000/svg"><sodipodi:namedview
     id="namedview1"
     pagecolor="#ffffff"
     bordercolor="#000000"
     borderopacity="0.25"
     inkscape:showpageshadow="2"
     inkscape:pageopacity="0.0"
     inkscape:pagecheckerboard="0"
     inkscape:deskcolor="#d1d1d1"
     inkscape:document-units="px"
     inkscape:zoom="0.75213577"
     inkscape:cx="274.55149"
     inkscape:cy="325.07429"
     inkscape:window-width="1470"
     inkscape:window-height="832"
     inkscape:window-x="0"
     inkscape:window-y="33"
     inkscape:window-maximized="0"
     inkscape:current-layer="layer1" /><defs
     id="defs1" /><path
     style="display:inline;fill:#ffffff;fill-opacity:0.969231;stroke-width:0.679846"
     d="m 147.30976,511.95197 c -26.20023,-0.76979 -42.3175,-3.12454 -58.747427,-8.58295 C 68.629752,496.74695 48.57208,483.3908 34.900912,467.63655 14.63881,444.28712 4.9287153,418.54356 2.3488746,381.33411 1.5864294,370.33723 0.5832852,289.46251 1.2093289,289.46251 c 0.2406472,0 9.1435341,6.56815 19.7841941,14.59589 21.627626,16.31674 33.895432,24.77989 40.283735,27.79039 8.516233,4.01329 19.987771,4.06152 27.223189,0.11445 8.044381,-4.38837 20.491103,-17.28224 28.873643,-29.91092 6.83881,-10.30298 12.05694,-19.86639 26.17817,-47.97739 15.83506,-31.52273 19.28885,-36.74864 24.28707,-36.74864 3.80768,0 5.28832,2.71729 18.20422,33.40852 13.85474,32.92211 18.53315,43.35969 28.49256,63.56705 23.93544,48.56442 36.25555,62.26563 50.47692,56.13542 8.80532,-3.79558 15.43708,-15.16932 42.25444,-72.46814 25.02655,-53.47248 34.72891,-71.1497 44.32777,-80.76299 8.62433,-8.63729 15.3485,-11.91639 21.9345,-10.69653 7.73981,1.43357 19.98086,8.90605 46.03374,28.10101 27.66979,20.38625 36.19583,26.08741 43.80295,29.28998 7.7862,3.27796 11.62505,4.07632 19.44892,4.04475 8.48436,-0.0342 13.61037,-1.43691 23.54858,-6.44379 l 5.5175,-2.77974 -0.40861,57.39308 c -0.48573,68.23023 -1.14872,78.77621 -6.22125,98.9553 -5.71956,22.75315 -16.33077,41.46602 -32.96496,58.13374 -21.06998,21.11246 -45.37203,32.56561 -78.08535,36.8003 -6.84257,0.8858 -18.05281,1.58796 -31.937,2.00055 -24.63498,0.732 -189.62232,0.69147 -214.9545,-0.0528 z"
     id="path9-0" /><path
     style="display:inline;fill:#ffffff;fill-opacity:0.969231;stroke-width:0.679846"
     d="m 256.00187,334.3171 c -8.98978,-9.97068 -20.28698,-33.91402 -38.02124,-80.58244 -14.99559,-39.4615 -20.51382,-53.08511 -26.18659,-64.65038 -7.55598,-15.40466 -12.06421,-20.75617 -17.48541,-20.75617 -9.31258,0 -15.41502,9.50202 -45.01653,70.09462 -13.86872,28.38849 -26.06017,52.12535 -29.703203,57.83245 -3.832531,6.00396 -10.915618,12.64374 -16.062335,15.05703 -4.142172,1.94227 -4.945094,2.08552 -10.459611,1.86618 -5.728814,-0.22787 -6.20755,-0.3736 -11.708485,-3.56415 -3.154497,-1.82961 -16.58505,-10.5593 -29.845669,-19.3993 C 18.252177,281.37493 5.9099755,273.37849 4.0856832,272.44506 L 0.76878835,270.74793 1.1925126,206.09754 C 1.4255607,170.53983 1.9375658,137.15982 2.330302,131.91974 4.6537282,100.9194 11.204334,79.649898 24.673065,59.373864 33.828494,45.59114 45.591786,33.801607 59.289153,24.680559 79.744992,11.059059 100.11758,4.8078005 132.7078,2.1523011 c 15.13578,-1.23328593 232.11975,-1.231057 247.21465,0.00254 14.59885,1.193058 23.95787,2.6183598 34.44749,5.2460659 40.415,10.124183 73.33027,39.965931 87.42724,79.263562 7.96597,22.206591 9.85381,45.409761 9.82782,120.794131 l -0.0115,34.02652 -7.81624,4.98795 c -14.77614,9.42935 -19.64892,10.90429 -27.43372,8.30389 -8.53162,-2.84985 -16.89631,-8.59128 -45.16421,-31.00015 -31.68759,-25.11976 -42.46733,-32.82507 -52.96992,-37.86261 -12.36661,-5.9316 -19.23966,-4.88082 -32.23014,4.92754 -12.97138,9.79393 -21.43567,24.08809 -43.89114,74.12168 -10.21742,22.76567 -22.14101,46.70038 -27.7894,55.78278 -4.102,6.59587 -12.91647,16.35343 -14.77282,16.35343 -0.56927,0 -2.16399,-1.25214 -3.54382,-2.78253 z"
     id="path7-9" /><g
     inkscape:label="Layer 1"
     inkscape:groupmode="layer"
     id="layer1"><g
       id="g3"
       style="fill:#000000"
       transform="matrix(0.48505284,0,0,0.48505284,0.58155142,7.6983252)"><path
         style="display:inline;fill:none;fill-opacity:0.969231;stroke-width:2.74958"
         d="m 523.52524,740.06043 c -27.3054,-8.28533 -71.80053,-86.32082 -132.89998,-233.07988 -30.1179,-72.34235 -30.76632,-73.57846 -39.03085,-74.40664 -12.11312,-1.21386 -18.21976,7.49556 -48.83262,69.64576 -39.71745,80.63425 -56.26848,107.83746 -81.49194,133.9396 -26.32523,27.24225 -39.05907,33.39634 -64.27942,31.06523 -18.99086,-1.75529 -33.61671,-10.69786 -102.529177,-62.68877 L 15.652722,575.25668 v -17.39479 -17.39481 l 17.021287,10.12197 c 9.361669,5.56707 37.410482,24.18293 62.330704,41.36849 27.829527,19.19196 49.171877,31.9851 55.321457,33.16106 24.50119,4.68527 41.75183,-3.9 62.1738,-30.94246 5.66167,-7.49715 30.59109,-55.47962 55.39874,-106.62768 50.37747,-103.86776 66.32771,-132.91922 79.42345,-144.66046 24.98674,-22.40228 41.19995,0.51146 87.62562,123.84031 34.7853,92.4064 46.42591,120.9038 63.86517,156.34844 15.14298,30.77757 29.0536,50.46483 35.65743,50.46483 1.94135,0 9.54525,-6.70909 16.8975,-14.90909 14.78462,-16.48917 38.74039,-62.15494 73.00196,-139.15989 41.97769,-94.34755 58.30813,-120.94519 86.96621,-141.64327 38.75296,-27.98918 53.71864,-21.49751 175.80651,76.26016 48.19404,38.5897 68.05183,51.6632 84.63126,55.71736 14.55645,3.55949 22.20105,1.16144 48.79808,-15.30745 8.6397,-5.34982 19.1837,-14.69156 19.0773,-9.95125 -0.1108,4.93308 0,7.01662 0,15.31842 v 15.09411 l -17.4141,8.73867 c -32.57191,16.34487 -62.91857,13.74119 -98.79638,-8.47637 C 913.8183,509.263 888.53905,491.43922 867.26656,475.61463 771.6577,404.49104 758.16474,399.20676 729.49651,421.6592 c -26.24408,20.55376 -43.52451,49.77822 -94.77005,160.27383 -36.01583,77.65713 -56.76418,118.91279 -69.24453,137.68463 -12.28635,18.48004 -26.15529,25.23744 -41.95669,20.44277 z"
         id="path8"
         sodipodi:nodetypes="ssssssscccssssssssssssssssscsssssss" /><path
         style="display:inline;fill:#141414;fill-opacity:0.96000004;stroke-width:1.36161"
         d="m 309.08521,1022.4803 c -52.52725,-1.5402 -84.8398,-6.2516 -117.77916,-17.1728 C 151.34443,992.05802 111.13202,965.33495 83.723527,933.81377 43.101268,887.09609 23.634089,835.58825 18.461923,761.13936 16.933343,739.13675 14.9222,577.32216 16.177317,577.32216 c 0.482459,0 18.331317,13.1416 39.664129,29.20354 43.359915,32.64663 67.954894,49.57975 80.762414,55.60317 17.07368,8.02981 40.07227,8.1263 54.57812,0.22899 16.12769,-8.78028 41.08136,-34.5784 57.88701,-59.84594 13.71072,-20.61426 24.17224,-39.74878 52.48303,-95.99342 31.74675,-63.07086 38.67104,-73.52688 48.69167,-73.52688 7.63378,0 10.60224,5.43676 36.49654,66.84394 27.77652,65.87074 37.15599,86.75431 57.12299,127.18532 47.98672,97.16795 72.68656,124.5814 101.19811,112.31606 17.65326,-7.59423 30.94887,-30.35087 84.71338,-144.99467 50.1742,-106.98802 69.62588,-142.35671 88.87005,-161.59103 17.29039,-17.28154 30.77128,-23.84237 43.97514,-21.40167 15.51707,2.86829 40.05841,17.81926 92.29025,56.22465 55.47349,40.78893 72.56683,52.19584 87.81787,58.60355 15.61009,6.55856 23.30636,8.15592 38.99197,8.09276 17.00978,-0.0685 27.28661,-2.87497 47.21111,-12.89277 l 11.0617,-5.56172 -0.8192,114.8324 c -0.9738,136.51542 -2.303,157.61587 -12.4726,197.99031 -11.4668,45.52463 -32.74056,82.96543 -66.08944,116.31431 -42.24192,42.24192 -90.96363,65.15744 -156.54859,73.63024 -13.71825,1.7723 -36.19298,3.1772 -64.02855,4.0027 -49.38918,1.4646 -380.16227,1.3835 -430.94921,-0.1057 z"
         id="path9" /><path
         style="display:inline;fill:#141414;fill-opacity:0.95999998;stroke-width:1.36161"
         d="M 526.99541,667.06748 C 508.97235,647.11809 486.32328,599.21211 450.76894,505.83769 420.70518,426.8829 409.64202,399.62471 398.26903,376.48485 383.1205,345.66312 374.08224,334.95578 363.21359,334.95578 c -18.67022,0 -30.90463,19.01171 -90.25091,140.24571 -27.80455,56.79985 -52.24644,104.29269 -59.55014,115.71149 -7.68361,12.01276 -21.88406,25.29766 -32.2024,30.12618 -8.30439,3.8861 -9.91412,4.17272 -20.96984,3.73386 -11.48535,-0.45592 -12.44514,-0.7475 -23.47363,-7.13116 -6.32426,-3.6607 -33.25036,-21.1271 -59.835769,-38.81424 C 50.345488,561.14049 25.601358,545.14116 21.943945,543.27355 l -6.649841,-3.39563 0.849499,-129.35285 C 16.610827,339.38101 17.637315,272.5941 18.424688,262.10971 23.082784,200.08407 36.215696,157.52793 63.218336,116.95953 81.5735,89.382979 105.15701,65.794416 132.61803,47.544973 173.6287,20.291 214.47247,7.7834484 279.81062,2.4703105 c 30.3448,-2.46756522 465.36278,-2.46310555 495.62563,0.00508 29.26835,2.3870769 48.03169,5.2388286 69.06169,10.4963575 81.02558,20.256522 147.0154,79.964055 175.27756,158.590972 15.9705,44.43108 19.7553,90.8561 19.7032,241.68557 l -0.023,68.08044 -15.6703,9.97992 c -29.62378,18.8663 -39.39293,21.81737 -55.00019,16.61448 -17.10453,-5.702 -33.87439,-17.18948 -90.54699,-62.02528 -63.52852,-50.25976 -85.14016,-65.67657 -106.19618,-75.75571 -24.79307,-11.86799 -38.57243,-9.76557 -64.61624,9.85904 -26.00554,19.59576 -42.97507,48.19558 -87.99468,148.30306 -20.48429,45.54968 -44.38917,93.43839 -55.71329,111.61051 -8.22384,13.19704 -25.89544,32.72003 -29.61713,32.72003 -1.14129,0 -4.33844,-2.50529 -7.10479,-5.5673 z"
         id="path7" /></g></g></svg>
